<?xml version="1.0" standalone="no"?>
<!DOCTYPE svg PUBLIC "-//W3C//DTD SVG 20010904//EN"
 "http://www.w3.org/TR/2001/REC-SVG-20010904/DTD/svg10.dtd">
<svg version="1.0" xmlns="http://www.w3.org/2000/svg"
 width="34.000000pt" height="36.000000pt" viewBox="0 0 34.000000 36.000000"
 preserveAspectRatio="xMidYMid meet">

<g transform="translate(0.000000,36.000000) scale(0.100000,-0.100000)"
fill="#000000" stroke="none">
<path d="M0 338 c0 -14 25 -47 67 -90 l67 -68 -67 -68 c-42 -43 -67 -76 -67
-90 0 -36 21 -26 97 50 l73 72 73 -72 c76 -76 97 -86 97 -49 0 15 -23 45 -65
87 -36 35 -65 69 -65 75 0 6 29 40 65 75 64 64 82 100 48 100 -10 0 -49 -32
-88 -70 l-71 -70 -69 70 c-73 74 -95 85 -95 48z"/>
</g>
</svg>
